<?xml version="1.0" ?><!DOCTYPE svg  PUBLIC '-//W3C//DTD SVG 1.1//EN'  'http://www.w3.org/Graphics/SVG/1.1/DTD/svg11.dtd'><svg width="1019px" height="1019px" viewBox="0 -63 1019 1019" style="shape-rendering:geometricPrecision; text-rendering:geometricPrecision; image-rendering:optimizeQuality; fill-rule:evenodd; clip-rule:evenodd" version="1.1" xml:space="preserve" xmlns="http://www.w3.org/2000/svg" xmlns:xlink="http://www.w3.org/1999/xlink"><defs><style type="text/css">
   <![CDATA[
    .fil0 {fill:#FEFEFE}
    .fil1 {fill:#1D1819}
   ]]>
  </style></defs><g id="Layer_x0020_1"><g id="_784074512"><polygon class="fil0" points="828,0 828,65 893,65 893,130 958,130 958,260 763,260 763,386 828,386 828,451 891,451 891,386 958,386 1019,386 1019,511 954,511 954,576 1019,576 1019,832 954,832 954,893 698,893 698,832 635,832 635,893 461,893 461,832 252,832 252,893 0,893 0,771 61,771 61,702 0,702 0,451 61,451 61,386 126,386 126,191 191,191 191,130 252,130 252,65 317,65 317,0 507,0 507,65 572,65 572,0 "/><path class="fil1" d="M317 65l190 0 65 0 256 0 65 0 0 65 65 0 0 65 0 65 -65 0 -130 0 0 61 0 65 65 0 0 65 61 0 0 -65 65 0 65 0 0 65 0 60 -65 0 0 65 65 0 0 256 -65 0 -191 0 0 -65 61 0 0 -61 -61 0 0 61 -65 0 0 -61 -63 0 0 126 -128 0 0 -61 -61 0 -320 0 0 -69 -65 0 -61 0 0 -251 61 0 65 0 65 0 0 125 -65 0 0 -125 0 -65 65 0 0 -195 63 0 0 -61 63 0 0 -65zm125 511l65 0 0 -125 -65 0 0 125zm-129 126l129 0 0 -65 -129 0 0 -65 -61 0 0 65 -61 0 0 65 61 0 0 -65 61 0 0 65zm4 -381l-65 0 0 65 65 0 0 -65 0 -61 125 0 0 -69 -61 0 0 -61 61 0 65 0 65 0 0 -65 0 -65 256 0 0 65 0 65 65 0 0 65 -130 0 0 -65 -65 0 0 65 0 65 -61 0 0 61 61 0 0 65 65 0 0 65 65 0 0 60 61 0 0 65 65 0 0 256 0 61 -191 0 -65 0 0 -61 -63 0 0 61 -128 0 -61 0 0 -61 -194 0 0 61 -191 0 -61 0 0 -61 0 -61 61 0 0 -69 0 -251 0 -65 65 0 0 -195 65 0 0 -61 61 0 0 -65 65 0 0 -65 190 0 0 65 0 65 0 61 0 69 0 61 -65 0 -125 0zm-191 450l0 61 -65 0 0 -61 65 0zm828 -260l0 -60 -65 0 0 60 65 0z"/></g></g></svg>