<?xml version="1.0" encoding="UTF-8"?>
<svg width="539px" height="195px" viewBox="0 0 539 195" version="1.1" xmlns="http://www.w3.org/2000/svg" xmlns:xlink="http://www.w3.org/1999/xlink">
    <!-- Generator: Sketch 51.3 (57544) - http://www.bohemiancoding.com/sketch -->
    <title>logo</title>
    <desc>Created with Sketch.</desc>
    <defs></defs>
    <g id="Blog" stroke="none" stroke-width="1" fill="none" fill-rule="evenodd">
        <g id="Blog-Copy-9" transform="translate(-845.000000, -94.000000)">
            <g id="logo" transform="translate(845.000000, 95.000000)">
                <path d="M478,96.5 C478,149.795546 383.756366,193 267.500695,193 C151.243634,193 57,149.795546 57,96.5 C57,43.205483 151.243634,0 267.500695,0 C383.756366,0 478,43.205483 478,96.5 Z" id="Stroke-1" stroke="#231F20" stroke-width="2"></path>
                <path d="M436,96.5 C436,149.795546 360.336465,193 267.000558,193 C173.663535,193 98,149.795546 98,96.5 C98,43.205483 173.663535,0 267.000558,0 C360.336465,0 436,43.205483 436,96.5 Z" id="Stroke-1" stroke="#231F20" stroke-width="2"></path>
                <path d="M386,96.5 C386,149.795546 332.945983,193 267.500391,193 C202.054017,193 149,149.795546 149,96.5 C149,43.205483 202.054017,0 267.500391,0 C332.945983,0 386,43.205483 386,96.5 Z" id="Stroke-1" stroke="#231F20" stroke-width="2"></path>
                <path d="M517,96.5 C517,149.795546 405.071693,193 267.000825,193 C128.928307,193 17,149.795546 17,96.5 C17,43.205483 128.928307,0 267.000825,0 C405.071693,0 517,43.205483 517,96.5 Z" id="Stroke-1" stroke="#231F20" stroke-width="2"></path>
                <rect id="Path" fill="#FFFFFF" x="0" y="50" width="539" height="95"></rect>
            </g>
        </g>
    </g>
</svg>