<svg id="1ed2818c-6569-432d-889f-d025d67feb7e" data-name="Layer 1" xmlns="http://www.w3.org/2000/svg" viewBox="0 0 105.06 88.92"><defs><style>.\39 2255aa3-0525-45d4-94ca-5344350e44aa{fill:#fff;}</style></defs><title>pup</title><g id="847f5667-5b5b-47d8-9c08-0cc607ff0505" data-name="wHVqLU.tif"><path class="92255aa3-0525-45d4-94ca-5344350e44aa" d="M568.4,346.62c0-1.16.11-2.32.07-3.47,0-.21-.47-.58-.73-.59-1.12-.05-2.25,0-3.37,0,0-.38.1-.77.1-1.15,0-1.77,0-3.55,0-5.32,0-1.42,0-1.42,1.48-1.42a9.8,9.8,0,0,0,1.8-.05c.29-.06.72-.47.73-.73.07-3.57.08-7.15.12-10.73,0-.62-.26-.87-.9-.86-2.16,0-4.32.06-6.48,0-.78,0-1,.34-.94,1,0,1,0,1.95,0,3-1,0-1.81-.06-2.62,0s-1.22-.27-1.21-1.2c0-2.82,0-2.86-2.83-2.83-.94,0-1.32-.28-1.19-1.21,0-.21,0-.42,0-.63,0-2.55.23-2.19-2.22-2.2s-2-.2-2,2.05c0,2,0,2-2,2-2.36,0-2.05-.22-2.06,2,0,2,0,3.95,0,6-1.1,0-2,0-3,0-.79,0-1.08.26-1,1,0,1,0,1.95,0,3-1.18,0-2.17,0-3.16,0-.64,0-.9.23-.88.87,0,1,0,2,0,3.17-1.18,0-2.19,0-3.21,0-.6,0-.84.24-.83.82,0,.81,0,1.63,0,2.44,0,.61-.23.82-.82.79-.78,0-1.56,0-2.34,0s-.89.25-.87.87a15.13,15.13,0,0,1,0,2.13c-.1,1,.33,1.26,1.28,1.26,2.72,0,2.76,0,2.74,2.79,0,.95.32,1.2,1.23,1.19,4.25,0,8.5,0,12.76,0,.73,0,1.47-.07,2.21-.1,0,2.46-.05,4.92,0,7.38a1,1,0,0,0,.68.73c1.12.06,2.25,0,3.37,0,0,.46,0,.92,0,1.38v38.8c-1.11,0-2.09,0-3.07,0-.75,0-1,.27-1,1,0,2.12,0,4.25,0,6.37,0,.69.23.95.92.95,3.51,0,7,0,10.52,0,.65,0,.89-.27.87-.89,0-.78,0-1.56,0-2.34,0-.58.24-.83.83-.82.78,0,1.56,0,2.33,0,.59,0,.84-.22.82-.82,0-.81,0-1.63,0-2.44,0-.54.2-.78.75-.77.71,0,1.42-.05,2.13,0,.95.09,1.19-.31,1.18-1.22,0-4.53,0-9.07,0-13.6,0-.46-.07-.91-.11-1.37.43,0,.85.05,1.27.05h28.69c2.22,0,2.21,0,2.22,2.18s0,1.81,1.8,1.85a9.14,9.14,0,0,0,1.17,0c.77-.08,1.08.2,1.06,1s-.26,2.28.24,2.73,1.85.29,2.82.28c.77,0,1,.29,1,1q0,2.93,0,5.85c0,.71-.2,1.05-1,1s-1.35,0-2,0-1.08.24-1.08,1c0,2.06,0,4.11-.05,6.16,0,1,.34,1.2,1.24,1.19,3.33-.06,6.66-.08,10,0,1,0,1.22-.35,1.18-1.25s-.27-2.12.19-2.53,1.72-.29,2.62-.25S621,402.89,621,402s-.28-2.12.17-2.53,1.73-.32,2.62-.27,1.25-.36,1.24-1.3c0-4.07,0-8.15,0-12.22,0-2.81,0-2.84-2.85-2.83-.91,0-1.22-.24-1.21-1.19,0-4.54,0-9.07,0-13.61,0-.34,0-.68.07-1.14h2.49c1.47,0,1.47,0,1.48-1.52v-6.47l.79-.07c1-.05,2.4.29,3-.24s.26-1.91.27-2.93c0-.63.21-.91.86-.87s1.42,0,2.13,0,1.07-.2,1.07-1q0-7.12,0-14.24c0-.87-.35-1.1-1.14-1.06s-1.88,0-2.91,0c0-1.18,0-2.17,0-3.16,0-.62-.22-.91-.87-.88-.81,0-1.63,0-2.44,0s-1,.3-1,1q0,2.07,0,4.14c0,1,.22,2.18-.27,2.74s-1.73.16-2.64.2h-.11c-.8-.11-1.06.28-1,1,0,1,0,1.95,0,3-1.13,0-2.05.05-3,0s-1.12.3-1.08,1.11,0,1.88,0,2.94h-1.53q-18.64,0-37.3,0c-.45,0-.91,0-1.37.06,0-1.13,0-2.25.09-3.38,0-.56-.24-.73-.77-.72Z" transform="translate(-528 -318.33)"/><path d="M576.48,350.66c.46,0,.92-.06,1.37-.06q18.66,0,37.3,0h1.53c0-1.06,0-2,0-2.94s.21-1.18,1.08-1.11,1.83,0,3,0c0-1,0-2,0-3,0-.76.22-1.15,1-1h.11c.91,0,2.21.27,2.64-.2s.25-1.79.27-2.74q0-2.07,0-4.14c0-.71.2-1.05,1-1s1.63,0,2.44,0c.65,0,.88.26.87.88,0,1,0,2,0,3.16,1,0,2,0,2.91,0s1.14.19,1.14,1.06q0,7.13,0,14.24c0,.81-.3,1.06-1.07,1s-1.42,0-2.13,0-.85.24-.86.87c0,1,.27,2.42-.27,2.93s-1.94.19-3,.24l-.79.07v6.47c0,1.52,0,1.52-1.48,1.52H621c0,.46-.07.8-.07,1.14,0,4.54,0,9.07,0,13.61,0,.95.3,1.2,1.21,1.19,2.85,0,2.85,0,2.85,2.83,0,4.07,0,8.15,0,12.22,0,.94-.21,1.36-1.24,1.3s-2.09-.21-2.62.27-.22,1.66-.17,2.53-.28,1.26-1.22,1.23-2.09-.22-2.62.25-.24,1.66-.19,2.53-.21,1.26-1.18,1.25c-3.33,0-6.66,0-10,0-.9,0-1.28-.22-1.24-1.19.07-2.05.07-4.1.05-6.16,0-.79.3-1.08,1.08-1s1.34,0,2,0,1-.28,1-1q0-2.92,0-5.85c0-.71-.2-1-1-1-1,0-2.25.23-2.82-.28s-.26-1.79-.24-2.73-.29-1.09-1.06-1a9.14,9.14,0,0,1-1.17,0c-1.81,0-1.8.39-1.8-1.85s0-2.18-2.22-2.18H569.67c-.42,0-.84,0-1.27-.05l0,0v-4h32.31v4h4v4h4v4h4v8h-3.88V403h7.95v-4h3.91V382.9h-3.84V366.8h4v-8.1h4v-4h3.93v-12h-3.94v4h-4v4h-4.07v4H604.71v8h-4.05v4H588.58v-4H580.5v-4h-4v-8Z" transform="translate(-528 -318.33)"/><path d="M568.4,383c0,.46.11.91.11,1.37,0,4.53,0,9.07,0,13.6,0,.91-.23,1.31-1.18,1.22-.71-.07-1.42,0-2.13,0-.55,0-.76.23-.75.77,0,.81,0,1.63,0,2.44,0,.6-.23.84-.82.82-.77,0-1.55,0-2.33,0-.59,0-.84.24-.83.82,0,.78,0,1.56,0,2.34,0,.62-.22.89-.87.89-3.51,0-7,0-10.52,0-.69,0-.93-.26-.92-.95,0-2.12,0-4.25,0-6.37,0-.73.22-1,1-1,1,0,2,0,3.07,0v-38.8c0-.46,0-.92,0-1.38l0,0h8.13v4.07h3.92v8h-4v4.07h-4V399h-3.94v3.92h8v-4h4.06V383h4Z" transform="translate(-528 -318.33)"/><path d="M548.23,350.64c-.74,0-1.48.1-2.21.1-4.26,0-8.51,0-12.76,0-.91,0-1.23-.24-1.23-1.19,0-2.77,0-2.8-2.74-2.79-.95,0-1.38-.26-1.28-1.26a15.13,15.13,0,0,0,0-2.13c0-.62.23-.9.87-.87s1.56,0,2.34,0c.59,0,.84-.18.82-.79,0-.81,0-1.63,0-2.44,0-.58.23-.83.83-.82,1,0,2,0,3.21,0,0-1.14,0-2.16,0-3.17,0-.64.24-.89.88-.87,1,0,2,0,3.16,0,0-1.06,0-2,0-3,0-.78.26-1.08,1-1,.94,0,1.89,0,3,0,0-2.09,0-4.07,0-6,0-2.24-.3-2,2.06-2,2,0,1.95,0,2-2,0-2.25-.33-2.06,2-2.05s2.2-.35,2.22,2.2c0,.21,0,.42,0,.63-.13.93.25,1.22,1.19,1.21,2.81,0,2.84,0,2.83,2.83,0,.93.27,1.28,1.21,1.2s1.62,0,2.62,0c0-1.05,0-2,0-3,0-.7.16-1.05.94-1,2.16,0,4.32,0,6.48,0,.64,0,.91.24.9.86,0,3.58-.05,7.16-.12,10.73,0,.26-.44.67-.73.73a9.8,9.8,0,0,1-1.8.05c-1.47,0-1.48,0-1.48,1.42,0,1.77,0,3.55,0,5.32,0,.38-.07.77-.1,1.15l0,0h-3.93V334.5h3.87v-7.89h-4v3.91h-8.07v-7.93h-4v8h-4v4h-4v4h-4v4h-3.93v4.07h15.92v4Z" transform="translate(-528 -318.33)"/><path d="M568.4,346.62l7.4-.06c.53,0,.79.16.77.72-.05,1.13-.06,2.25-.09,3.38l0,0h-8.08v-4Z" transform="translate(-528 -318.33)"/><path d="M552.27,358.71c-1.12,0-2.25.1-3.37,0a1,1,0,0,1-.68-.73c0-2.46,0-4.92,0-7.38l0,0h4v8.07Z" transform="translate(-528 -318.33)"/><path d="M564.37,342.58c1.12,0,2.25-.07,3.37,0,.26,0,.72.38.73.59,0,1.15,0,2.31-.07,3.47l0,0h-4v-4Z" transform="translate(-528 -318.33)"/><path d="M548.29,338.49c0-1.18,0-2.23,0-3.28a.88.88,0,0,1,.59-.62c1.08-.06,2.16,0,3.31,0v3.93Z" transform="translate(-528 -318.33)"/></g></svg>
